ply
format ascii 1.0
comment Created by Blender 2.79 (sub 0) - www.blender.org, source file: ''
element vertex 36
property float x
property float y
property float z
property float nx
property float ny
property float nz
property float s
property float t
element face 17
property list uchar uint vertex_indices
end_header
-1.000000 -5.000000 1.000000 0.000000 0.000000 0.000000 0.250000 0.750000
-1.000000 -1.000000 1.000000 0.000000 0.000000 0.000000 0.250000 0.250000
-1.000000 1.000000 1.000000 0.000000 0.000000 0.000000 0.250000 0.000000
-1.000000 1.000000 1.000000 -1.000000 0.000000 0.000000 0.250000 0.000000
-1.000000 1.000000 -1.000000 -1.000000 0.000000 0.000000 0.500000 0.000000
-1.000000 -1.000000 -1.000000 -1.000000 0.000000 0.000000 0.500000 0.250000
-1.000000 -5.000000 -1.000000 -1.000000 0.000000 0.000000 0.500000 0.750000
-1.000000 -5.000000 1.000000 -1.000000 0.000000 0.000000 0.250000 0.750000
1.000000 1.000000 1.000000 -0.000000 1.000000 0.000000 0.750000 0.250000
1.000000 1.000000 -1.000000 -0.000000 1.000000 0.000000 1.000000 0.250000
-1.000000 1.000000 -1.000000 -0.000000 1.000000 0.000000 1.000000 0.500000
-1.000000 1.000000 1.000000 -0.000000 1.000000 0.000000 0.750000 0.500000
-1.000000 -1.000000 -1.000000 -0.000000 -0.000000 -1.000000 0.500000 0.250000
-1.000000 1.000000 -1.000000 -0.000000 -0.000000 -1.000000 0.500000 0.000000
1.000000 1.000000 -1.000000 -0.000000 -0.000000 -1.000000 0.750000 0.000000
1.000000 -1.000000 -1.000000 0.000000 0.000000 0.000000 0.750000 0.250000
1.000000 -3.000000 -1.000000 0.000000 0.000000 0.000000 0.750000 0.500000
1.000000 -5.000000 -1.000000 0.000000 0.000000 0.000000 0.750000 0.750000
1.000000 -1.000000 -1.000000 -0.000000 0.000000 -1.000000 0.750000 0.250000
1.000000 -5.000000 -1.000000 0.000000 0.000000 -1.000000 0.750000 0.750000
-1.000000 -5.000000 -1.000000 0.000000 0.000000 -1.000000 0.500000 0.750000
1.000000 -5.000000 1.000000 0.000000 -1.000000 0.000000 0.750000 0.000000
-1.000000 -5.000000 1.000000 0.000000 -1.000000 0.000000 1.000000 0.000000
-1.000000 -5.000000 -1.000000 0.000000 -1.000000 0.000000 1.000000 0.250000
1.000000 -5.000000 -1.000000 0.000000 -1.000000 0.000000 0.750000 0.250000
1.000000 -1.000000 -1.000000 1.000000 -0.000000 0.000000 0.250000 1.000000
1.000000 -1.000000 1.000000 1.000000 -0.000000 0.000000 0.000000 1.000000
1.000000 -3.000000 1.000000 1.000000 -0.000000 0.000000 0.000000 0.750000
1.000000 -3.000000 -1.000000 1.000000 -0.000000 0.000000 0.250000 0.750000
1.000000 -1.000000 1.000000 -0.000000 0.000000 1.000000 0.250000 0.500000
1.000000 1.000000 1.000000 -0.000000 0.000000 1.000000 0.250000 0.750000
-1.000000 1.000000 1.000000 -0.000000 0.000000 1.000000 0.000000 0.750000
-1.000000 -1.000000 1.000000 0.000000 -0.000000 1.000000 0.000000 0.500000
-1.000000 -5.000000 1.000000 0.000000 -0.000000 1.000000 0.000000 0.000000
1.000000 -5.000000 1.000000 0.000000 -0.000000 1.000000 0.250000 0.000000
1.000000 -3.000000 1.000000 0.000000 0.000000 1.000000 0.250000 0.250000
3 0 1 2
3 3 4 5
3 5 6 7
3 3 5 7
4 8 9 10 11
3 12 13 14
3 15 16 17
3 12 14 18
3 19 20 12
3 18 19 12
4 21 22 23 24
4 25 26 27 28
3 29 30 31
3 32 33 34
3 29 31 32
3 32 34 35
3 32 35 29
