ply
format ascii 1.0
comment Created by Blender 2.82 (sub 7) - www.blender.org, source file: ''
element vertex 64
property float x
property float y
property float z
property float nx
property float ny
property float nz
property float s
property float t
element face 22
property list uchar uint vertex_indices
end_header
1.000000 1.000000 1.000000 0.000000 -0.000000 1.000000 0.600000 0.400000
-1.000000 1.000000 1.000000 0.000000 -0.000000 1.000000 0.600000 0.600000
-1.000000 -1.000000 1.000000 0.000000 -0.000000 1.000000 0.400000 0.600000
1.000000 -1.000000 1.000000 0.000000 -0.000000 1.000000 0.400000 0.400000
1.000000 -1.000000 -1.000000 0.000000 -1.000000 0.000000 0.800000 0.400000
1.000000 -1.000000 1.000000 0.000000 -1.000000 0.000000 1.000000 0.400000
-1.000000 -1.000000 1.000000 0.000000 -1.000000 0.000000 1.000000 0.600000
-1.000000 -1.000000 -1.000000 0.000000 -1.000000 0.000000 0.800000 0.600000
-1.000000 -1.000000 -1.000000 -1.000000 -0.000000 0.000000 0.400000 1.000000
-1.000000 -1.000000 1.000000 -1.000000 -0.000000 0.000000 0.200000 1.000000
-1.000000 1.000000 1.000000 -1.000000 -0.000000 0.000000 0.200000 0.800000
-1.000000 1.000000 -1.000000 -1.000000 -0.000000 0.000000 0.400000 0.800000
-1.000000 1.000000 -1.000000 0.000000 0.000000 -1.000000 0.200000 0.600000
1.000000 1.000000 -1.000000 0.000000 0.000000 -1.000000 0.200000 0.400000
1.000000 -1.000000 -1.000000 0.000000 0.000000 -1.000000 0.400000 0.400000
-1.000000 -1.000000 -1.000000 0.000000 0.000000 -1.000000 0.400000 0.600000
3.000000 -1.000000 -1.000000 -0.000000 -1.000000 0.000000 0.800000 0.200000
3.000000 -1.000000 1.000000 -0.000000 -1.000000 0.000000 1.000000 0.200000
-1.000000 3.000000 1.000000 -1.000000 -0.000000 0.000000 0.200000 0.600000
-1.000000 3.000000 -1.000000 -1.000000 -0.000000 0.000000 0.400000 0.600000
3.000000 1.000000 1.000000 0.000000 0.000000 1.000000 0.600000 0.200000
3.000000 -1.000000 1.000000 0.000000 0.000000 1.000000 0.400000 0.200000
5.000000 -1.000000 1.000000 0.000000 0.000000 1.000000 0.400000 0.000000
5.000000 1.000000 1.000000 0.000000 0.000000 1.000000 0.600000 0.000000
1.000000 1.000000 -1.000000 0.000000 1.000000 0.000000 0.600000 1.000000
1.000000 1.000000 1.000000 0.000000 1.000000 0.000000 0.400000 1.000000
3.000000 1.000000 1.000000 0.000000 1.000000 0.000000 0.400000 0.800000
3.000000 1.000000 -1.000000 0.000000 1.000000 0.000000 0.600000 0.800000
3.000000 1.000000 -1.000000 -0.000000 0.000000 -1.000000 0.200000 0.200000
3.000000 -1.000000 -1.000000 -0.000000 0.000000 -1.000000 0.400000 0.200000
5.000000 1.000000 -1.000000 1.000000 -0.000000 0.000000 0.200000 0.800000
5.000000 1.000000 1.000000 1.000000 -0.000000 0.000000 0.000000 0.800000
5.000000 -1.000000 1.000000 1.000000 -0.000000 0.000000 0.000000 0.600000
5.000000 -1.000000 -1.000000 1.000000 -0.000000 0.000000 0.200000 0.600000
5.000000 3.000000 1.000000 0.000000 0.000000 1.000000 0.800000 0.000000
3.000000 3.000000 1.000000 0.000000 0.000000 1.000000 0.800000 0.200000
5.000000 1.000000 -1.000000 -0.000000 0.000000 -1.000000 0.200000 0.000000
5.000000 -1.000000 -1.000000 -0.000000 0.000000 -1.000000 0.400000 0.000000
5.000000 -1.000000 -1.000000 -0.000000 -1.000000 0.000000 0.800000 0.000000
5.000000 -1.000000 1.000000 -0.000000 -1.000000 0.000000 1.000000 0.000000
-1.000000 3.000000 -1.000000 0.000000 1.000000 0.000000 0.800000 0.800000
-1.000000 3.000000 1.000000 0.000000 1.000000 0.000000 0.800000 0.600000
1.000000 3.000000 1.000000 0.000000 1.000000 0.000000 1.000000 0.600000
1.000000 3.000000 -1.000000 0.000000 1.000000 0.000000 1.000000 0.800000
-1.000000 3.000000 -1.000000 0.000000 -0.000000 -1.000000 0.000000 0.600000
1.000000 3.000000 -1.000000 0.000000 -0.000000 -1.000000 0.000000 0.400000
1.000000 3.000000 1.000000 0.000000 0.000000 1.000000 0.800000 0.400000
-1.000000 3.000000 1.000000 0.000000 0.000000 1.000000 0.800000 0.600000
1.000000 1.000000 1.000000 1.000000 0.000000 0.000000 0.400000 0.600000
1.000000 1.000000 -1.000000 1.000000 0.000000 0.000000 0.600000 0.600000
1.000000 3.000000 -1.000000 1.000000 0.000000 0.000000 0.600000 0.800000
1.000000 3.000000 1.000000 1.000000 0.000000 0.000000 0.400000 0.800000
3.000000 3.000000 -1.000000 0.000000 1.000000 0.000000 0.800000 0.600000
3.000000 3.000000 1.000000 0.000000 1.000000 0.000000 0.800000 0.800000
5.000000 3.000000 1.000000 0.000000 1.000000 0.000000 0.600000 0.800000
5.000000 3.000000 -1.000000 0.000000 1.000000 0.000000 0.600000 0.600000
3.000000 1.000000 -1.000000 -1.000000 -0.000000 0.000000 0.800000 1.000000
3.000000 1.000000 1.000000 -1.000000 -0.000000 0.000000 0.600000 1.000000
3.000000 3.000000 1.000000 -1.000000 -0.000000 0.000000 0.600000 0.800000
3.000000 3.000000 -1.000000 -1.000000 -0.000000 0.000000 0.800000 0.800000
3.000000 3.000000 -1.000000 0.000000 -0.000000 -1.000000 0.000000 0.200000
5.000000 3.000000 -1.000000 0.000000 -0.000000 -1.000000 0.000000 0.000000
5.000000 3.000000 -1.000000 1.000000 0.000000 0.000000 0.200000 1.000000
5.000000 3.000000 1.000000 1.000000 0.000000 0.000000 0.000000 1.000000
4 0 1 2 3
4 4 5 6 7
4 8 9 10 11
4 12 13 14 15
4 5 4 16 17
4 11 10 18 19
4 20 21 22 23
4 24 25 26 27
4 14 13 28 29
4 0 3 21 20
4 30 31 32 33
4 20 23 34 35
4 29 28 36 37
4 17 16 38 39
4 40 41 42 43
4 13 12 44 45
4 1 0 46 47
4 48 49 50 51
4 52 53 54 55
4 56 57 58 59
4 36 28 60 61
4 31 30 62 63
