ply
format ascii 1.0
comment Created by Blender 2.79 (sub 0) - www.blender.org, source file: ''
element vertex 12
property float x
property float y
property float z
property float nx
property float ny
property float nz
element face 4
property list uchar uint vertex_indices
end_header
0.000000 1.000000 -1.000000 0.840168 0.485071 0.242536
0.000000 0.000000 1.000000 0.840168 0.485071 0.242536
0.866025 -0.500000 -1.000000 0.840168 0.485071 0.242536
0.866025 -0.500000 -1.000000 -0.000000 -0.970143 0.242536
0.000000 0.000000 1.000000 -0.000000 -0.970143 0.242536
-0.866025 -0.500000 -1.000000 -0.000000 -0.970143 0.242536
-0.866025 -0.500000 -1.000000 -0.840168 0.485071 0.242536
0.000000 0.000000 1.000000 -0.840168 0.485071 0.242536
0.000000 1.000000 -1.000000 -0.840168 0.485071 0.242536
0.000000 1.000000 -1.000000 0.000000 0.000000 -1.000000
0.866025 -0.500000 -1.000000 0.000000 0.000000 -1.000000
-0.866025 -0.500000 -1.000000 0.000000 0.000000 -1.000000
3 0 1 2
3 3 4 5
3 6 7 8
3 9 10 11
